<svg width="247" height="238" viewBox="0 0 247 238" fill="none" xmlns="http://www.w3.org/2000/svg">
<path d="M184.484 104.59C185.55 105.096 186.718 105.372 187.905 105.399C187.972 105.392 188.037 105.372 188.095 105.34C188.154 105.309 188.205 105.266 188.247 105.215C188.288 105.164 188.318 105.106 188.336 105.044C188.354 104.981 188.359 104.916 188.35 104.852C188.251 104.102 187.374 104.745 184.941 103.662L185.065 102.781C185.127 102.531 184.818 102.127 184.484 102.246C184.151 102.365 184.064 102.746 183.966 103.436C183.867 104.126 183.817 104.269 184.484 104.59ZM55.5751 107.97C57.0612 107.58 58.4569 106.922 59.6877 106.03C60.1693 105.673 60.0088 104.84 59.8729 104.364C59.8342 104.241 59.7496 104.135 59.6353 104.068C59.5209 104.001 59.3849 103.977 59.2533 104.001C59.1217 104.024 59.0038 104.094 58.9221 104.196C58.8404 104.298 58.8008 104.426 58.8108 104.554C58.8343 104.812 58.8839 105.067 58.959 105.316C56.0321 107.375 54.8959 106.863 55.0688 107.696C55.1072 107.791 55.1787 107.87 55.271 107.92C55.3634 107.97 55.4709 107.988 55.5751 107.97ZM52.2159 105.768C54.6859 105.768 53.8461 104.364 53.1792 104.578L52.2283 104.721C51.4132 100.996 52.0677 100.211 51.3638 100.187C51.2576 100.181 51.153 100.214 51.0722 100.281C50.9914 100.348 50.941 100.442 50.9315 100.544C50.8443 102.016 50.9564 103.492 51.2649 104.935C51.4008 105.578 51.6478 105.768 52.2159 105.768ZM123.932 103.721C124.636 103.721 128.341 102.948 128.971 102.853C129.897 102.698 130.997 102.424 131.071 101.46C131.071 100.865 130.626 100.175 130.12 100.532C130.014 100.604 129.937 100.706 129.899 100.825C129.861 100.943 129.864 101.071 129.91 101.187C130.095 101.651 129.7 101.615 123.735 102.865C123.625 102.897 123.532 102.969 123.475 103.064C123.417 103.16 123.399 103.273 123.424 103.381C123.449 103.489 123.515 103.584 123.609 103.647C123.703 103.71 123.819 103.737 123.932 103.721ZM42.7064 74.5903C42.9781 74.8878 43.645 74.5903 43.4474 74.1381C42.2124 71.2345 39.94 67.9977 38.5074 64.8085C38.2851 64.2968 37.8405 63.4281 37.4083 63.3805C37.3541 63.3731 37.2989 63.3804 37.2488 63.4014C37.1987 63.4224 37.1556 63.4563 37.1242 63.4995C36.8525 63.8565 37.2477 64.8442 37.4329 65.2607C38.001 66.4388 40.7551 72.4364 42.7064 74.5903ZM82.7451 69.5685C82.7682 69.6614 82.8162 69.7468 82.8843 69.8163C82.9523 69.8858 83.038 69.937 83.1329 69.9646C83.2279 69.9923 83.3286 69.9956 83.4253 69.9741C83.5219 69.9526 83.611 69.9071 83.6837 69.8422C84.7033 68.9476 85.6299 67.9591 86.4501 66.891C90.1551 78.315 90.1551 78.7196 90.7355 78.7196C90.8188 78.7173 90.9005 78.6979 90.9752 78.6625C91.0499 78.6272 91.1159 78.5767 91.1686 78.5147C91.2213 78.4526 91.2596 78.3803 91.2807 78.3027C91.3019 78.2252 91.3055 78.1441 91.2913 78.0651C89.9081 73.8525 88.4508 69.7351 87.1911 65.5344C87.1629 65.43 87.1032 65.3359 87.0197 65.2641C86.9362 65.1922 86.8325 65.1457 86.7217 65.1305C86.6109 65.1152 86.4978 65.1319 86.3967 65.1783C86.2957 65.2248 86.2111 65.299 86.1537 65.3916C85.4445 66.4664 84.6163 67.4639 83.6837 68.3666C82.9427 65.106 81.2137 57.6566 81.2137 57.6566C81.1826 57.5366 81.1033 57.4335 80.9933 57.3699C80.8833 57.3063 80.7515 57.2874 80.6271 57.3174C80.5026 57.3474 80.3956 57.4238 80.3296 57.5298C80.2636 57.6358 80.244 57.7627 80.2751 57.8827C80.695 59.7272 82.4857 68.7474 82.7451 69.5685ZM18.414 131.472C14.4373 129.64 10.8928 127.759 6.8173 125.689C6.0269 125.284 5.4835 126.677 6.7185 126.998C10.2767 129.138 14.0709 130.89 18.0311 132.222C18.5251 132.353 18.8709 131.734 18.414 131.472ZM21.5756 103.995C21.6604 104.068 21.7663 104.113 21.8789 104.126C21.9914 104.139 22.1054 104.118 22.2054 104.067C23.0205 103.686 21.9708 102.746 22.366 97.0932C32.3818 108.743 31.8261 108.446 32.246 108.446C32.3329 108.451 32.4196 108.432 32.4958 108.391C32.572 108.351 32.6346 108.29 32.6761 108.216C32.7176 108.142 32.7364 108.059 32.7302 107.975C32.724 107.891 32.6931 107.811 32.6412 107.744C31.0727 105.84 24.2061 97.6168 22.3783 95.3796C22.3096 95.2957 22.2173 95.2325 22.1125 95.1975C22.0076 95.1626 21.8946 95.1573 21.7867 95.1823C21.6788 95.2074 21.5807 95.2617 21.5039 95.3388C21.427 95.416 21.3748 95.5127 21.3533 95.6176C21.1022 97.7909 21.0608 99.9819 21.2298 102.163C17.5248 98.9615 13.9803 95.57 10.2383 92.4522C10.125 92.3646 9.98326 92.3182 9.83804 92.3214C9.69282 92.3245 9.55339 92.3768 9.44426 92.4692C9.33512 92.5615 9.26328 92.688 9.24135 92.8264C9.21942 92.9647 9.24881 93.1061 9.32435 93.2257C10.7817 95.4034 19.0068 101.746 21.5756 103.995ZM118.992 59.8581C118.992 59.9748 119.04 60.0868 119.126 60.1694C119.212 60.252 119.328 60.2984 119.449 60.2984C119.57 60.2984 119.687 60.252 119.772 60.1694C119.858 60.0868 119.906 59.9748 119.906 59.8581C120.118 55.4871 119.928 51.1067 119.338 46.7681C119.325 46.6536 119.279 46.5451 119.203 46.4558C119.128 46.3665 119.027 46.3002 118.913 46.2649C118.8 46.2297 118.678 46.2269 118.562 46.2571C118.447 46.2873 118.343 46.349 118.264 46.4349C117.708 47.1251 119.042 49.3028 118.992 59.8581ZM152.411 80.5284C161.81 65.2488 161.303 66.0104 161.229 65.7367C161.019 65.0465 160.427 65.3797 155.672 66.7601C156.907 62.5356 158.451 58.0255 159.476 53.7534C159.497 53.6152 159.464 53.4744 159.383 53.3586C159.302 53.2428 159.179 53.1604 159.038 53.1276C158.897 53.0947 158.748 53.1139 158.622 53.1813C158.495 53.2486 158.398 53.3593 158.352 53.4916C156.956 58.2516 155.573 62.9045 154.239 67.4741C154.218 67.5685 154.221 67.6667 154.25 67.7594C154.279 67.8521 154.331 67.9363 154.403 68.0041C154.474 68.0719 154.563 68.1211 154.659 68.147C154.756 68.1729 154.858 68.1748 154.956 68.1524C154.956 68.1524 158.228 67.1766 159.55 66.7601L151.658 80.1238C151.611 80.2192 151.604 80.3282 151.638 80.4287C151.671 80.5291 151.743 80.6136 151.839 80.6649C151.934 80.7163 152.047 80.7308 152.153 80.7054C152.259 80.6801 152.352 80.6168 152.411 80.5284ZM240.714 115.431C240.072 115.134 228.191 122.25 228.068 122.333C227.635 122.631 228.068 123.368 228.512 123.142C229.228 122.833 240.578 116.752 240.961 116.097C240.99 116.038 241.007 115.974 241.01 115.908C241.014 115.842 241.004 115.777 240.981 115.715C240.958 115.653 240.923 115.596 240.877 115.547C240.831 115.499 240.776 115.459 240.714 115.431ZM209.271 101.829C209.271 101.829 221.176 93.0829 223.399 91.4169C223.881 91.048 223.399 90.2269 222.831 90.2864C220.59 90.3378 218.358 90.5808 216.162 91.0123C219.35 87.7353 222.173 84.1457 224.585 80.3023C224.992 79.6597 224.004 78.9933 223.609 79.6478C220.888 83.9245 217.651 87.8751 213.964 91.4169C213.569 91.7858 213.816 92.6902 214.458 92.6069C216.638 92.072 218.86 91.7138 221.102 91.5359C221.102 91.5359 211.667 98.8544 208.752 101.175C208.703 101.251 208.679 101.339 208.684 101.429C208.688 101.518 208.721 101.604 208.777 101.675C208.833 101.746 208.911 101.799 208.999 101.826C209.087 101.854 209.182 101.855 209.271 101.829ZM192.24 67.3789C199.823 54.7887 201.145 52.9561 199.872 52.6467C199.329 52.5158 199.354 52.5634 191.388 66.9267C191.351 67.0325 191.353 67.1477 191.395 67.252C191.437 67.3563 191.516 67.443 191.617 67.4969C191.719 67.5509 191.837 67.5686 191.951 67.547C192.065 67.5254 192.167 67.4659 192.24 67.3789Z" fill="white"/>
<path d="M227.24 119.609C222.201 104.293 209.468 92.5124 192.277 87.3002C192.265 86.9969 192.232 86.6948 192.178 86.3958C196.871 84.4204 197.921 77.6255 196.883 71.7112C197.785 70.2951 200.181 63.0123 198.415 64.0119L195.192 65.8445C194.735 64.6545 194.203 63.5478 193.635 62.453C193.759 60.549 191.956 57.1456 188.782 54.9203C185.867 52.8735 180.853 51.0409 173.542 53.9683C167.836 56.2531 161.402 61.2987 160.426 68.6291C159.191 78.1491 162.464 82.7663 156.351 91.608C149.596 88.6609 142.396 86.7728 135.022 86.015C135.023 85.4817 134.985 84.9489 134.911 84.4204C138.06 82.8853 138.727 77.8873 138.863 76.257C142.568 73.163 143 66.9988 140.098 66.856C140.844 62.44 141.129 57.9631 140.95 53.4923C140.79 50.7196 139.555 50.1008 138.987 49.9818C138.586 49.9088 138.172 49.9459 137.792 50.089C137.412 50.2321 137.081 50.4754 136.838 50.791C135.911 48.9703 134.133 49.1964 133.133 50.5768C133.035 50.0869 132.779 49.6391 132.402 49.2967C132.025 48.9544 131.547 48.7348 131.033 48.669C130.52 48.6033 129.998 48.6946 129.541 48.9302C129.085 49.1658 128.717 49.5336 128.489 49.9818C128.25 49.4905 127.864 49.0789 127.381 48.7993C126.899 48.5197 126.34 48.3848 125.778 48.4115C125.215 48.4383 124.674 48.6257 124.222 48.9498C123.77 49.2739 123.428 49.7201 123.24 50.2317C122.005 47.6494 118.856 48.2444 118.152 50.8624C117.226 48.8513 114.694 48.8632 113.817 51.1956C111.508 49.5534 109.692 51.1956 109.322 53.8969C109.098 58.4903 109.296 63.0937 109.915 67.6533C105.728 66.7489 108.988 76.1975 111.483 76.4236C111.915 79.9936 113.447 83.9206 116.423 84.8726C116.423 85.3486 116.349 85.8365 116.349 86.3125C108.364 87.5412 100.679 90.1667 93.6745 94.0594C89.8213 91.4414 81.2504 87.8833 73.0129 88.5378C71.5204 85.4993 70.3973 82.3048 69.6661 79.0178C69.1227 76.1499 70.5182 75.0194 70.5059 72.5442C72.1049 69.4392 72.5033 65.8869 71.6297 62.5244C67.7395 50.6244 44.2374 55.1464 44.9043 68.2126C44.9908 69.7001 45.1266 71.1876 45.2625 72.3419C42.3602 73.1868 42.7925 73.3891 43.5952 76.7925C44.0275 78.6489 44.5215 80.184 46.5469 79.7794C47.4731 83.6469 49.8073 89.823 55.3154 89.823C55.6488 89.823 55.3154 89.6207 55.6241 91.6199C41.8045 97.4152 24.4527 108.28 19.9573 127.32C18.8705 131.913 18.216 138.435 21.3282 143.361C24.7491 148.847 30.8006 149.192 35.1478 148.918C34.1303 154.306 33.8026 159.793 34.1722 165.257C34.1744 165.333 34.1984 165.408 34.2415 165.472C34.2846 165.536 34.3451 165.587 34.4165 165.621C34.4879 165.654 34.5674 165.667 34.6463 165.66C34.7252 165.652 34.8004 165.624 34.8638 165.578C35.5307 165.198 34.2216 164.793 36.3087 148.835C47.9424 147.8 59.0327 142.98 69.2832 137.911C70.9752 139.101 72.6548 140.291 74.3961 141.362C75.8278 144.151 78.0217 146.512 80.7418 148.189C83.462 149.867 86.6053 150.798 89.8336 150.882C89.5249 155.891 89.5249 160.914 89.8336 165.924C89.8382 165.984 89.8555 166.043 89.8842 166.097C89.913 166.151 89.9528 166.199 90.0012 166.238C90.0496 166.277 90.1057 166.306 90.166 166.323C90.2263 166.341 90.2897 166.347 90.3523 166.34C91.4144 166.245 90.0436 165.733 90.8834 150.87C101.159 150.87 109.594 144.408 118.053 139.47C128.007 143.861 152.411 152.036 165.317 149.68C165.91 154.749 165.823 159.557 166.33 164.46C166.346 164.548 166.394 164.627 166.465 164.685C166.536 164.742 166.626 164.774 166.719 164.774C166.811 164.774 166.901 164.742 166.972 164.685C167.043 164.627 167.091 164.548 167.108 164.46C167.432 159.45 167.221 154.422 166.478 149.454C175.431 147.407 180.927 141.326 182.385 131.878C182.977 131.497 183.62 131.068 184.286 130.581C191.931 133.52 207.751 140.672 215.483 140.934C215.124 146.467 214.618 152.31 214.532 158.046C214.549 158.143 214.601 158.231 214.679 158.294C214.757 158.357 214.856 158.392 214.958 158.392C215.06 158.392 215.158 158.357 215.236 158.294C215.314 158.231 215.367 158.143 215.384 158.046C215.557 156.463 216.68 142.957 216.619 140.898C228.993 140.624 230.945 130.866 227.24 119.609ZM139.11 68.7481C139.444 68.3197 139.629 67.8199 140.11 67.9627C141.839 68.4506 140.456 72.5918 139.011 74.4363C139.135 72.5442 139.172 70.6283 139.11 68.7481ZM109.631 68.7481C110.026 68.7481 109.976 68.9147 110.866 69.0813L111.36 74.9599C109.532 73.3296 108.21 68.7719 109.631 68.7719V68.7481ZM195.439 67.5581C195.491 67.3909 195.61 67.2505 195.77 67.1679C195.93 67.0853 196.117 67.0673 196.291 67.1178C196.464 67.1683 196.61 67.2832 196.696 67.4372C196.781 67.5912 196.8 67.7717 196.748 67.9389C196.315 69.4145 195.982 70.4855 195.698 71.5089C195.625 71.6363 195.522 71.7455 195.398 71.8281C195.274 71.9107 195.131 71.9644 194.982 71.9849C193.895 72.0206 195.056 68.6291 195.439 67.5343V67.5581ZM174.653 72.3181C175.357 71.8064 176.21 72.4609 176.345 72.4728C177.506 73.1868 178.815 72.1515 178.482 71.854L178.235 71.6636C177.321 70.9734 175.444 69.5454 175.839 68.5696C176.135 67.8318 177.346 67.9389 178.136 67.9032C178.164 67.9024 178.192 67.8954 178.217 67.8829C178.241 67.8703 178.263 67.8525 178.28 67.8307C178.296 67.8089 178.308 67.7838 178.313 67.7572C178.318 67.7306 178.317 67.7032 178.309 67.6771C178.186 67.2963 178.037 66.9155 177.889 66.4871C182.556 64.2567 187.674 63.0381 192.882 62.9171C193.413 64.1071 193.87 65.2376 194.278 66.3562C192.734 67.2011 190.98 68.1293 190.573 69.8191C190.206 69.7752 189.833 69.8112 189.483 69.9245C189.132 70.0377 188.812 70.2254 188.547 70.4736C186.608 68.2245 178.581 68.4149 176.963 68.4744C174.876 68.5577 180.384 72.6156 181.903 73.758C187.003 77.5779 190.338 74.948 189.066 71.4613C189.244 71.2506 189.479 71.0906 189.744 70.9984C190.009 70.9062 190.296 70.8852 190.573 70.9377C190.619 71.1638 190.693 71.3836 190.795 71.5922C190.733 71.5629 190.666 71.5476 190.597 71.5476C190.529 71.5476 190.461 71.5629 190.4 71.5922C189.893 71.9016 190.4 72.3181 191.561 74.3054C191.417 74.4458 191.265 74.5769 191.104 74.6981C190.634 75.0313 191.042 76.4831 192.61 74.6981C192.845 74.4244 192.4 73.6271 191.906 72.925C192.503 73.3165 193.217 73.5057 193.937 73.4626C194.657 73.4195 195.342 73.1466 195.883 72.687C196.423 75.8819 196.117 79.1564 194.994 82.207C193.759 85.1225 190.659 85.2891 191.289 86.3958C191.452 90.3192 191.12 94.2471 190.301 98.0935C187.127 97.4271 180.878 89.9658 178.383 86.5029C178.642 83.6094 178.254 80.696 177.247 77.9587C176.42 76.5783 174.777 75.9476 174.345 74.3887C174.176 74.0411 174.115 73.6538 174.17 73.2737C174.225 72.8936 174.393 72.5369 174.653 72.2467V72.3181ZM193.376 70.3308C193.24 70.7235 193.154 71.2709 192.709 71.2709C192.265 71.2709 192.042 70.7711 192.092 70.3427C192.141 69.9143 192.265 68.9266 192.734 68.6648C192.824 68.6218 192.923 68.5994 193.024 68.5994C193.125 68.5994 193.224 68.6218 193.314 68.6648C193.895 68.8195 193.586 69.6525 193.376 70.2594V70.3308ZM186.719 73.0678C186.584 73.3891 186.448 73.9722 186.052 74.1507C185.983 74.1833 185.907 74.2003 185.83 74.2003C185.753 74.2003 185.677 74.1833 185.608 74.1507C184.867 73.8889 185.682 71.2352 186.349 70.7235C186.407 70.6664 186.479 70.6244 186.559 70.6013C186.638 70.5782 186.723 70.5748 186.804 70.5914C186.885 70.608 186.961 70.6441 187.024 70.6963C187.087 70.7485 187.135 70.8152 187.164 70.8901C187.423 71.4375 186.794 72.8179 186.719 72.9964V73.0678ZM184.015 71.9135C183.854 72.2229 183.78 72.5085 183.36 72.5085C183.261 72.5151 183.162 72.4983 183.072 72.4594C182.982 72.4206 182.902 72.361 182.841 72.2858C182.781 72.2106 182.74 72.1222 182.722 72.0282C182.705 71.9343 182.712 71.8377 182.743 71.7469C182.879 71.3542 183.027 70.4617 183.521 70.2237C183.599 70.1889 183.684 70.1699 183.77 70.1679C183.856 70.1659 183.942 70.181 184.022 70.2123C184.102 70.2435 184.174 70.2902 184.234 70.3495C184.295 70.4088 184.342 70.4794 184.373 70.5569C184.546 70.9496 184.262 71.4851 184.015 71.9135ZM177.84 87.1693C181.347 93.0003 190.585 101.449 191.301 98.6171C192.109 95.2551 192.482 91.8097 192.413 88.3593C209.332 94.1189 220.818 104.674 225.82 118.919C222.199 117.254 218.221 116.438 214.21 116.539C214.038 112.623 208.468 105.055 206.331 102.782C205.899 102.318 205.096 102.913 205.566 103.377C208.769 106.872 211.22 110.945 212.778 115.36C206.726 110.969 194.537 104.841 177.827 109.886C173.492 102.757 167.163 96.9461 159.562 93.1193C165.031 89.6727 171.322 87.625 177.84 87.1693ZM113.434 60.3229C120.861 58.3697 128.665 58.1535 136.196 59.6922C136.069 61.7089 136.135 63.7325 136.393 65.7374H136.171C135.146 61.1916 128.576 59.7874 126.365 64.5474C125.236 64.1784 124.012 64.1784 122.882 64.5474C120.746 60.2634 114.558 61.6438 113.422 65.8802H113.187C113.447 64.0391 113.53 62.1787 113.434 60.3229ZM130.23 70.1166C130.453 69.5097 132.453 65.0115 133.75 64.8806C133.858 64.8793 133.965 64.9028 134.061 64.9491C134.158 64.9955 134.242 65.0633 134.306 65.1471C134.37 65.2308 134.412 65.3281 134.429 65.4307C134.447 65.5334 134.438 65.6385 134.405 65.7374C133.302 67.2507 132.32 68.8419 131.465 70.4974C131.157 71.2352 129.946 70.9496 130.23 70.1166ZM128.44 68.4506C128.292 68.8076 127.625 69.0218 127.39 68.6053C127.155 68.1888 127.723 66.6061 129.329 64.2856C129.736 63.7025 130.119 63.4169 130.453 63.4645C130.561 63.4944 130.661 63.5494 130.742 63.6247C130.823 63.7001 130.884 63.7934 130.92 63.8967C130.955 64 130.964 64.11 130.945 64.2172C130.926 64.3244 130.88 64.4255 130.811 64.5117C129.871 65.7357 129.076 67.0568 128.44 68.4506ZM117.695 70.426C118.226 69.3074 118.819 68.1769 119.387 67.0702C119.448 66.9635 119.537 66.8744 119.646 66.8124C119.754 66.7503 119.878 66.7176 120.005 66.7176C120.131 66.7176 120.255 66.7503 120.364 66.8124C120.472 66.8744 120.562 66.9635 120.622 67.0702C120.7 67.1832 120.741 67.3156 120.741 67.451C120.741 67.5864 120.7 67.7189 120.622 67.8318C120.079 68.8671 119.523 69.95 118.93 70.9972C118.461 71.5922 117.325 71.14 117.695 70.426ZM116.201 68.9266L116.127 69.0099C115.744 69.5454 114.781 69.2003 115.04 68.522C115.753 66.6937 116.664 64.9427 117.757 63.2979C118.288 62.6791 119.362 63.2146 118.992 63.9405C118.115 65.6303 117.041 67.213 116.201 68.9266ZM111.792 69.0337C112.582 68.7124 112.805 67.8437 113.027 67.094L113.286 67.0226C113.222 67.8482 113.327 68.6779 113.596 69.4642C113.865 70.2505 114.293 70.9777 114.855 71.6041C115.521 72.2344 116.356 72.674 117.266 72.8739C118.176 73.0737 119.126 73.026 120.01 72.736C120.894 72.446 121.676 71.9251 122.271 71.2314C122.865 70.5378 123.248 69.6986 123.376 68.8076C123.249 69.9536 123.195 71.1062 123.216 72.2586C123.216 72.9726 123.043 73.8651 123.957 73.9246H125.192C125.834 73.9246 126.007 72.8536 125.266 72.8417H124.352C124.28 70.7215 124.4 68.5992 124.71 66.499C124.796 65.9159 123.92 65.8326 123.796 66.38C123.253 68.9385 123.796 67.4748 123.314 65.5827C124.177 65.2848 125.12 65.2848 125.982 65.5827C125.71 66.5368 125.657 67.5363 125.825 68.5123C125.993 69.4883 126.38 70.4173 126.958 71.2352C127.398 71.7846 127.955 72.2364 128.592 72.56C129.23 72.8837 129.931 73.0716 130.651 73.1111C131.37 73.1506 132.089 73.0407 132.76 72.7889C133.431 72.5372 134.039 72.1493 134.541 71.6517C135.754 70.3471 136.4 68.6427 136.344 66.8917H136.578C136.727 67.927 136.949 69.355 138.085 69.2717C137.962 73.3415 138.332 80.3149 134.985 82.8615C134.553 83.1947 134.059 83.5755 133.997 83.9563C133.843 85.2173 133.843 86.4914 133.997 87.7524C134.355 91.0487 128.366 97.5699 125.266 100.355C119.288 92.5243 117.572 91.7508 117.584 84.8845C117.584 84.1943 117.498 84.0872 117.004 83.8492C112.002 81.5168 112.459 74.7933 111.792 69.0337ZM116.411 87.3597C116.547 91.013 119.523 95.9515 124.772 101.271C125.834 102.604 135.22 91.5009 135.035 89.0971V87.086C160.315 89.9539 178.433 103.972 181.322 122.869C170.825 120.882 157.561 123.214 155.313 123.631C154.349 117.713 152.533 111.953 149.916 106.519C149.872 106.413 149.786 106.329 149.677 106.284C149.568 106.239 149.446 106.238 149.336 106.281C149.226 106.323 149.139 106.406 149.092 106.511C149.046 106.616 149.045 106.734 149.089 106.84C151.36 112.204 153.016 117.79 154.029 123.5C147.533 116.907 137.653 113.98 123.883 114.575C115.594 114.945 107.361 116.073 99.2937 117.943C99.939 114.314 101.476 110.886 103.777 107.947C103.827 107.858 103.842 107.755 103.82 107.656C103.797 107.557 103.738 107.47 103.653 107.41C103.568 107.351 103.464 107.323 103.36 107.332C103.255 107.341 103.158 107.386 103.085 107.459C100.49 110.548 98.7863 114.243 98.1452 118.169C89.1912 120.238 80.4957 123.235 72.2102 127.106C73.3464 103.794 95.7122 91.2986 116.411 87.3597ZM62.8489 65.3209C62.8362 66.4508 62.9064 67.5802 63.0588 68.7005C58.6128 68.8076 51.5486 70.4736 46.2875 72.0444C46.1517 70.9972 45.8429 69.0932 45.8306 67.9627C51.1243 65.5317 57.0306 64.6148 62.8489 65.3209ZM58.9216 71.7112C56.4516 75.7572 56.9826 76.4712 56.1552 76.4712C56.0623 76.4767 55.9695 76.4605 55.8845 76.4242C55.7994 76.3878 55.7247 76.3323 55.6666 76.2624C55.6085 76.1924 55.5687 76.1099 55.5506 76.022C55.5324 75.9341 55.5365 75.8433 55.5624 75.7572C56.6862 71.6636 57.7607 70.902 58.3041 70.8068C58.4225 70.7836 58.5455 70.795 58.6571 70.8398C58.7688 70.8845 58.8639 70.9604 58.9304 71.0577C58.9968 71.155 59.0315 71.2693 59.0299 71.3858C59.0284 71.5022 58.9906 71.6156 58.9216 71.7112ZM55.1054 72.6037C54.6485 73.3296 54.5373 74.3411 53.8704 74.1864C53.2035 74.0317 53.6852 72.5799 54.0804 71.8064C54.4756 71.0329 54.8214 71.021 55.056 71.0805C55.1883 71.1152 55.3059 71.1889 55.3923 71.2914C55.4787 71.3939 55.5296 71.5199 55.5377 71.6517C55.4893 72.0019 55.3395 72.3318 55.1054 72.6037ZM45.917 74.9837C45.7812 75.2931 45.7688 76.2451 45.1019 76.2451C44.9721 76.25 44.8444 76.2128 44.7392 76.1394C44.634 76.0661 44.5573 75.9608 44.5215 75.8405C44.4561 75.008 44.7309 74.1839 45.2872 73.5438C45.4019 73.445 45.5461 73.3838 45.6992 73.3688C45.8523 73.3538 46.0064 73.3859 46.1393 73.4605C46.4357 73.6509 46.374 74.1507 45.917 74.948V74.9837ZM46.374 77.7564C47.4978 73.8651 48.14 73.2939 48.5229 73.2106C48.6016 73.1931 48.6838 73.1973 48.7602 73.2225C48.8366 73.2477 48.9041 73.2931 48.9551 73.3534C49.123 73.5409 49.2073 73.7847 49.1898 74.0317L47.5596 78.0896C47.5088 78.2411 47.3977 78.367 47.2506 78.4395C47.1035 78.512 46.9326 78.5253 46.7754 78.4764C46.6181 78.4274 46.4875 78.3204 46.4122 78.1786C46.337 78.0369 46.3232 77.8722 46.374 77.7207V77.7564ZM47.609 79.5533C49.9802 78.8869 50.7459 79.0773 50.4865 75.6025C50.4001 74.6148 50.2025 72.3657 51.2399 72.4014C52.0797 72.4014 52.1044 76.1618 53.3517 77.328C54.5991 78.4942 56.2169 77.6731 57.5754 77.328C61.2804 76.3522 60.4653 74.829 60.1936 70.1047L63.3058 69.8667C64.7014 76.8401 66.5786 71.616 67.8383 70.8306C68.641 70.3427 69.3326 71.4137 69.4808 72.2348C69.7649 73.996 68.2458 75.9238 68.5669 78.5061C69.2947 82.2437 70.5409 85.87 72.2719 89.2875C69.5673 94.2379 61.7991 98.8075 58.3411 100.616C56.8838 95.5231 56.7603 88.8353 55.8711 88.8591C51.7709 88.8829 49.0786 85.896 47.5596 79.5176L47.609 79.5533ZM55.7353 92.7623C55.9576 94.5592 56.8715 102.282 58.2053 101.64C61.5645 100.117 71.7903 93.6429 73.2476 89.4779C75.4088 89.9539 82.1519 88.6925 92.6247 94.7734C84.8965 99.2214 78.6951 105.76 74.7913 113.575C64.8002 112.385 52.4378 110.898 42.0515 116.182C45.2254 108.97 47.1273 108.256 46.2258 107.685C46.1791 107.654 46.1265 107.633 46.071 107.622C46.0156 107.611 45.9584 107.612 45.9031 107.623C45.8477 107.634 45.7953 107.656 45.7488 107.687C45.7024 107.718 45.663 107.758 45.633 107.804C45.3119 108.268 40.8041 115.444 40.693 116.907C38.9516 117.931 35.2343 120.549 34.1228 122.608C29.5825 122.693 25.1582 124.004 21.3529 126.392C25.1073 112.385 36.9756 100.759 55.6859 92.7266L55.7353 92.7623ZM23.7117 144.73C18.994 139.97 20.0067 132.009 20.9824 127.641C33.036 120.013 48.9675 123.274 68.357 137.352C61.8362 140.041 33.3447 154.357 23.7117 144.73ZM35.3701 122.584C45.176 112.124 59.3538 112.79 74.285 114.563C70.4565 123.072 70.123 132.056 73.3217 139.387C62.2067 131.366 49.0786 122.548 35.3701 122.548V122.584ZM90.7969 149.954C78.6322 149.954 72.099 139.66 72.2719 128.236C89.5619 120.751 104.666 116.919 121.215 115.813C136.331 114.801 146.508 117.455 153.177 124.143C120.597 131.176 107.148 149.918 90.7969 149.918V149.954ZM165.49 148.645C153.399 151.275 133.38 144.396 119.153 138.911C141.827 126.011 162.229 121.144 181.483 124.036C183.002 137.328 177.321 146.062 165.49 148.645ZM182.619 130.628C183.26 123.747 181.751 116.839 178.284 110.791C191.548 107.483 202.75 109.41 212.482 116.669C199.699 117.586 186.818 127.201 182.607 130.628H182.619ZM216.211 139.874C208.653 139.874 192.746 132.734 185.423 129.855C193.253 124.143 202.527 118.086 213.692 117.657C218.053 117.398 222.403 118.317 226.252 120.311C229.562 131.068 227.907 139.803 216.199 139.874H216.211Z" fill="white"/>
</svg>
