<svg width="371" height="371" viewBox="0 0 371 371" fill="none" xmlns="http://www.w3.org/2000/svg">
<path d="M277.1 163.036C278.701 163.825 280.454 164.255 282.238 164.297C282.339 164.286 282.435 164.255 282.523 164.206C282.611 164.156 282.689 164.09 282.751 164.011C282.813 163.931 282.859 163.84 282.885 163.743C282.912 163.646 282.919 163.544 282.906 163.444C282.758 162.276 281.441 163.277 277.786 161.589L277.972 160.216C278.065 159.827 277.601 159.196 277.1 159.382C276.599 159.567 276.469 160.161 276.321 161.237C276.173 162.313 276.098 162.535 277.1 163.036ZM83.4751 168.304C85.7073 167.697 87.8036 166.671 89.6523 165.281C90.3757 164.724 90.1346 163.426 89.9305 162.684C89.8724 162.491 89.7453 162.327 89.5736 162.222C89.4018 162.118 89.1975 162.08 88.9998 162.117C88.8022 162.154 88.625 162.262 88.5024 162.422C88.3797 162.581 88.3202 162.78 88.3352 162.98C88.3705 163.382 88.445 163.78 88.5578 164.168C84.1615 167.377 82.4549 166.579 82.7146 167.878C82.7723 168.026 82.8796 168.149 83.0184 168.227C83.1571 168.305 83.3185 168.332 83.4751 168.304ZM78.4295 164.873C82.1395 164.873 80.8781 162.684 79.8764 163.018L78.4481 163.24C77.2238 157.434 78.2069 156.21 77.1496 156.173C76.9901 156.162 76.833 156.215 76.7117 156.319C76.5904 156.423 76.5145 156.57 76.5003 156.729C76.3693 159.023 76.5377 161.324 77.0012 163.574C77.2052 164.576 77.5762 164.873 78.4295 164.873ZM186.149 161.682C187.207 161.682 192.772 160.476 193.718 160.328C195.109 160.087 196.76 159.66 196.871 158.157C196.871 157.23 196.203 156.154 195.443 156.711C195.285 156.822 195.168 156.982 195.111 157.167C195.054 157.351 195.06 157.55 195.128 157.731C195.406 158.454 194.812 158.399 185.853 160.346C185.688 160.397 185.548 160.508 185.462 160.657C185.375 160.806 185.348 160.983 185.385 161.151C185.423 161.319 185.522 161.467 185.664 161.566C185.805 161.664 185.979 161.706 186.149 161.682ZM64.146 116.272C64.5541 116.735 65.5558 116.272 65.259 115.567C63.404 111.04 59.9908 105.995 57.839 101.023C57.5051 100.226 56.8373 98.8716 56.1881 98.7974C56.1068 98.786 56.0239 98.7973 55.9486 98.83C55.8733 98.8628 55.8085 98.9157 55.7614 98.9829C55.3533 99.5394 55.9469 101.079 56.2252 101.728C57.0785 103.565 61.2151 112.914 64.146 116.272ZM124.285 108.443C124.32 108.588 124.392 108.721 124.494 108.83C124.596 108.938 124.725 109.018 124.868 109.061C125.01 109.104 125.162 109.109 125.307 109.076C125.452 109.042 125.586 108.971 125.695 108.87C127.226 107.476 128.618 105.935 129.85 104.27C135.415 122.078 135.415 122.708 136.287 122.708C136.412 122.705 136.535 122.675 136.647 122.619C136.759 122.564 136.858 122.486 136.937 122.389C137.017 122.292 137.074 122.18 137.106 122.059C137.138 121.938 137.143 121.811 137.122 121.688C135.044 115.121 132.855 108.703 130.963 102.155C130.921 101.992 130.831 101.846 130.706 101.734C130.58 101.622 130.425 101.549 130.258 101.525C130.092 101.502 129.922 101.528 129.77 101.6C129.618 101.672 129.491 101.788 129.405 101.932C128.34 103.608 127.096 105.163 125.695 106.57C124.582 101.487 121.985 89.8749 121.985 89.8749C121.938 89.6879 121.819 89.5272 121.654 89.4281C121.489 89.3289 121.291 89.2995 121.104 89.3462C120.917 89.393 120.756 89.512 120.657 89.6773C120.558 89.8425 120.528 90.0404 120.575 90.2273C121.206 93.1026 123.896 107.163 124.285 108.443ZM27.6582 204.941C21.6851 202.084 16.3612 199.153 10.2397 195.925C9.05252 195.295 8.23632 197.465 10.0913 197.966C15.4359 201.302 21.1348 204.033 27.0831 206.109C27.8251 206.313 28.3445 205.349 27.6582 204.941ZM32.407 162.109C32.5345 162.221 32.6935 162.293 32.8626 162.312C33.0317 162.332 33.2028 162.3 33.353 162.22C34.5773 161.626 33.0006 160.161 33.5942 151.35C48.6382 169.51 47.8035 169.046 48.4342 169.046C48.5648 169.054 48.695 169.025 48.8094 168.962C48.9239 168.898 49.0178 168.804 49.0802 168.688C49.1426 168.573 49.1708 168.443 49.1615 168.313C49.1522 168.182 49.1058 168.057 49.0278 167.952C46.6719 164.984 36.3581 152.166 33.6127 148.678C33.5095 148.548 33.3709 148.449 33.2134 148.395C33.0559 148.34 32.8861 148.332 32.7241 148.371C32.5621 148.41 32.4147 148.495 32.2993 148.615C32.1839 148.735 32.1054 148.886 32.0731 149.049C31.696 152.437 31.6339 155.853 31.8876 159.252C26.3226 154.262 20.9987 148.975 15.3781 144.115C15.2079 143.979 14.9951 143.906 14.7769 143.911C14.5588 143.916 14.3494 143.998 14.1855 144.142C14.0215 144.286 13.9136 144.483 13.8807 144.698C13.8477 144.914 13.8919 145.134 14.0054 145.321C16.1943 148.715 28.5486 158.603 32.407 162.109ZM178.729 93.3066C178.729 93.4887 178.802 93.6633 178.93 93.792C179.059 93.9207 179.234 93.993 179.416 93.993C179.598 93.993 179.772 93.9207 179.901 93.792C180.03 93.6633 180.102 93.4887 180.102 93.3066C180.42 86.4931 180.135 79.6648 179.249 72.9016C179.23 72.7232 179.159 72.5541 179.046 72.4149C178.933 72.2757 178.781 72.1723 178.611 72.1174C178.44 72.0624 178.257 72.0581 178.084 72.1052C177.91 72.1522 177.754 72.2484 177.635 72.3822C176.8 73.4581 178.804 76.8528 178.729 93.3066ZM228.926 125.528C243.042 101.71 242.282 102.897 242.17 102.47C241.855 101.394 240.965 101.914 233.823 104.066C235.678 97.4804 237.997 90.4499 239.536 83.7905C239.568 83.5752 239.519 83.3556 239.397 83.1751C239.275 82.9946 239.09 82.8661 238.879 82.815C238.667 82.7638 238.444 82.7937 238.253 82.8987C238.063 83.0037 237.918 83.1762 237.848 83.3824C235.752 90.8024 233.674 98.0554 231.671 105.179C231.639 105.326 231.644 105.479 231.687 105.623C231.73 105.768 231.809 105.899 231.917 106.005C232.024 106.111 232.157 106.187 232.302 106.228C232.447 106.268 232.6 106.271 232.747 106.236C232.747 106.236 237.663 104.715 239.648 104.066L227.794 124.897C227.724 125.046 227.713 125.216 227.763 125.373C227.814 125.529 227.922 125.661 228.065 125.741C228.209 125.821 228.378 125.844 228.538 125.804C228.697 125.765 228.836 125.666 228.926 125.528ZM361.558 179.935C360.594 179.471 342.748 190.564 342.563 190.694C341.914 191.158 342.563 192.308 343.231 191.956C344.307 191.473 361.354 181.994 361.929 180.974C361.973 180.881 361.998 180.781 362.004 180.679C362.009 180.576 361.994 180.474 361.959 180.378C361.925 180.281 361.872 180.192 361.803 180.116C361.734 180.041 361.651 179.979 361.558 179.935ZM314.33 158.732C314.33 158.732 332.212 145.098 335.551 142.501C336.275 141.926 335.551 140.646 334.698 140.739C331.332 140.819 327.98 141.198 324.681 141.871C329.469 136.762 333.709 131.167 337.332 125.176C337.944 124.174 336.46 123.135 335.866 124.155C331.78 130.822 326.916 136.98 321.379 142.501C320.785 143.076 321.156 144.486 322.121 144.356C325.395 143.523 328.733 142.964 332.101 142.687C332.101 142.687 317.929 154.095 313.551 157.712C313.477 157.831 313.441 157.968 313.448 158.108C313.455 158.247 313.503 158.381 313.588 158.491C313.673 158.602 313.789 158.684 313.921 158.728C314.054 158.771 314.196 158.772 314.33 158.732ZM288.749 105.03C300.139 85.4043 302.124 82.5476 300.213 82.0653C299.397 81.8613 299.434 81.9355 287.469 104.325C287.413 104.49 287.417 104.67 287.48 104.832C287.543 104.995 287.661 105.13 287.814 105.214C287.967 105.298 288.144 105.326 288.315 105.292C288.486 105.259 288.64 105.166 288.749 105.03Z" fill="#4DA2FD"/>
<path d="M341.32 186.446C333.751 162.572 314.626 144.208 288.805 136.083C288.787 135.61 288.738 135.139 288.656 134.673C295.705 131.594 297.282 121.002 295.724 111.782C297.078 109.575 300.677 98.2223 298.024 99.7805L293.182 102.637C292.496 100.782 291.698 99.057 290.845 97.3504C291.031 94.3824 288.322 89.0771 283.555 85.6083C279.177 82.4177 271.646 79.561 260.664 84.1243C252.094 87.6859 242.43 95.5511 240.964 106.978C239.109 121.818 244.025 129.015 234.843 142.798C224.697 138.204 213.882 135.261 202.807 134.079C202.807 133.248 202.752 132.418 202.64 131.594C207.37 129.201 208.372 121.41 208.576 118.868C214.141 114.045 214.79 104.437 210.431 104.214C211.551 97.3301 211.98 90.3515 211.711 83.3823C211.47 79.0601 209.615 78.0955 208.761 77.91C208.159 77.7961 207.537 77.8541 206.966 78.0771C206.396 78.3002 205.899 78.6794 205.534 79.1714C204.142 76.3333 201.471 76.6857 199.969 78.8375C199.821 78.0738 199.437 77.3758 198.871 76.8421C198.305 76.3084 197.586 75.9661 196.815 75.8636C196.044 75.7611 195.26 75.9035 194.575 76.2707C193.889 76.6379 193.336 77.2114 192.994 77.91C192.634 77.1442 192.055 76.5026 191.33 76.0667C190.605 75.6309 189.766 75.4205 188.921 75.4622C188.076 75.504 187.263 75.796 186.584 76.3012C185.906 76.8065 185.393 77.502 185.11 78.2996C183.255 74.2742 178.525 75.2017 177.468 79.2827C176.076 76.1478 172.274 76.1663 170.957 79.8021C167.488 77.2422 164.761 79.8021 164.204 84.013C163.867 91.1732 164.165 98.3492 165.095 105.457C158.806 104.047 163.703 118.776 167.451 119.128C168.1 124.693 170.4 130.815 174.871 132.299C174.871 133.041 174.759 133.801 174.759 134.543C162.765 136.459 151.223 140.551 140.701 146.619C134.914 142.538 122.04 136.992 109.667 138.012C107.425 133.276 105.739 128.296 104.64 123.172C103.824 118.701 105.92 116.939 105.902 113.081C108.303 108.241 108.902 102.703 107.59 97.4617C101.746 78.9117 66.4458 85.9607 67.4475 106.329C67.5774 108.647 67.7814 110.966 67.9855 112.765C63.6262 114.083 64.2755 114.398 65.4812 119.703C66.1305 122.597 66.8725 124.99 69.9147 124.359C71.3059 130.388 74.8119 140.015 83.0852 140.015C83.586 140.015 83.0852 139.7 83.5489 142.816C62.7915 151.85 36.7287 168.786 29.9765 198.466C28.3441 205.627 27.361 215.792 32.0356 223.472C37.1739 232.023 46.2634 232.561 52.793 232.135C51.2646 240.533 50.7725 249.086 51.3276 257.604C51.3309 257.723 51.3669 257.839 51.4317 257.939C51.4964 258.038 51.5874 258.119 51.6946 258.17C51.8018 258.222 51.9212 258.243 52.0397 258.232C52.1581 258.22 52.2712 258.176 52.3664 258.105C53.3681 257.511 51.4018 256.88 54.5367 232.005C72.0108 230.391 88.6687 222.878 104.065 214.976C106.607 216.831 109.129 218.686 111.745 220.355C113.895 224.704 117.191 228.383 121.276 230.998C125.362 233.613 130.083 235.064 134.932 235.195C134.469 243.004 134.469 250.834 134.932 258.643C134.939 258.737 134.965 258.829 135.008 258.913C135.052 258.997 135.111 259.072 135.184 259.133C135.257 259.193 135.341 259.239 135.432 259.266C135.522 259.293 135.617 259.302 135.712 259.292C137.307 259.144 135.248 258.346 136.509 235.177C151.943 235.177 164.612 225.104 177.319 217.406C192.27 224.251 228.925 236.995 248.31 233.322C249.2 241.224 249.071 248.718 249.831 256.361C249.856 256.498 249.928 256.622 250.034 256.712C250.141 256.801 250.276 256.85 250.415 256.85C250.555 256.85 250.69 256.801 250.796 256.712C250.903 256.622 250.975 256.498 251 256.361C251.487 248.552 251.17 240.714 250.054 232.969C263.502 229.779 271.757 220.3 273.946 205.571C274.837 204.978 275.801 204.31 276.803 203.549C288.285 208.131 312.048 219.28 323.66 219.688C323.122 228.313 322.362 237.421 322.232 246.363C322.258 246.514 322.336 246.651 322.453 246.749C322.57 246.848 322.719 246.902 322.872 246.902C323.025 246.902 323.173 246.848 323.29 246.749C323.408 246.651 323.486 246.514 323.512 246.363C323.771 243.895 325.459 222.841 325.367 219.632C343.954 219.205 346.885 203.994 341.32 186.446ZM208.947 107.163C209.448 106.496 209.726 105.716 210.449 105.939C213.046 106.7 210.969 113.155 208.799 116.03C208.984 113.081 209.04 110.094 208.947 107.163ZM164.668 107.163C165.262 107.163 165.187 107.423 166.523 107.683L167.265 116.846C164.52 114.305 162.535 107.2 164.668 107.2V107.163ZM293.553 105.308C293.632 105.048 293.811 104.829 294.051 104.7C294.291 104.571 294.573 104.543 294.833 104.622C295.094 104.701 295.313 104.88 295.442 105.12C295.57 105.36 295.599 105.641 295.52 105.902C294.871 108.202 294.37 109.872 293.943 111.467C293.833 111.665 293.679 111.836 293.492 111.965C293.306 112.093 293.092 112.177 292.867 112.209C291.235 112.265 292.978 106.978 293.553 105.271V105.308ZM262.334 112.728C263.391 111.931 264.671 112.951 264.875 112.97C266.619 114.083 268.585 112.469 268.084 112.005L267.713 111.708C266.341 110.632 263.521 108.406 264.115 106.885C264.56 105.735 266.378 105.902 267.565 105.846C267.607 105.845 267.648 105.834 267.686 105.815C267.723 105.795 267.756 105.767 267.781 105.733C267.806 105.699 267.822 105.66 267.83 105.619C267.838 105.577 267.836 105.535 267.825 105.494C267.639 104.9 267.417 104.307 267.194 103.639C274.204 100.162 281.891 98.2625 289.714 98.0739C290.511 99.9289 291.198 101.691 291.81 103.435C289.491 104.752 286.857 106.199 286.245 108.833C285.694 108.764 285.134 108.821 284.608 108.997C284.081 109.174 283.601 109.466 283.203 109.853C280.29 106.347 268.233 106.644 265.803 106.737C262.668 106.867 270.941 113.192 273.223 114.973C280.884 120.927 285.892 116.828 283.982 111.393C284.249 111.064 284.602 110.815 285 110.671C285.399 110.527 285.829 110.495 286.245 110.577C286.314 110.929 286.426 111.272 286.579 111.597C286.486 111.551 286.385 111.527 286.282 111.527C286.179 111.527 286.077 111.551 285.985 111.597C285.225 112.079 285.985 112.728 287.729 115.826C287.514 116.045 287.284 116.249 287.042 116.438C286.338 116.958 286.95 119.221 289.306 116.438C289.658 116.012 288.99 114.769 288.248 113.674C289.144 114.285 290.217 114.58 291.298 114.512C292.38 114.445 293.408 114.02 294.221 113.303C295.032 118.284 294.573 123.388 292.886 128.143C291.031 132.688 286.375 132.948 287.321 134.673C287.565 140.789 287.067 146.912 285.837 152.908C281.069 151.869 271.683 140.238 267.936 134.84C268.324 130.329 267.742 125.788 266.229 121.521C264.986 119.369 262.519 118.386 261.87 115.956C261.617 115.414 261.526 114.81 261.608 114.218C261.69 113.625 261.942 113.069 262.334 112.617V112.728ZM290.456 109.631C290.252 110.243 290.122 111.096 289.454 111.096C288.786 111.096 288.452 110.317 288.526 109.649C288.601 108.981 288.786 107.442 289.491 107.034C289.627 106.966 289.776 106.932 289.927 106.932C290.078 106.932 290.227 106.966 290.363 107.034C291.235 107.275 290.771 108.573 290.456 109.519V109.631ZM280.457 113.897C280.253 114.398 280.049 115.307 279.455 115.585C279.352 115.636 279.237 115.662 279.122 115.662C279.006 115.662 278.892 115.636 278.788 115.585C277.675 115.177 278.899 111.04 279.901 110.243C279.988 110.154 280.097 110.088 280.216 110.052C280.335 110.016 280.462 110.011 280.584 110.037C280.706 110.063 280.82 110.119 280.914 110.2C281.009 110.282 281.081 110.386 281.125 110.502C281.515 111.356 280.568 113.507 280.457 113.786V113.897ZM276.395 112.098C276.154 112.58 276.042 113.025 275.412 113.025C275.263 113.035 275.115 113.009 274.979 112.949C274.843 112.888 274.724 112.795 274.632 112.678C274.541 112.561 274.479 112.423 274.454 112.276C274.428 112.13 274.438 111.979 274.484 111.838C274.688 111.226 274.911 109.835 275.653 109.464C275.77 109.409 275.898 109.38 276.027 109.377C276.157 109.374 276.285 109.397 276.405 109.446C276.525 109.494 276.634 109.567 276.725 109.66C276.815 109.752 276.886 109.862 276.933 109.983C277.192 110.595 276.766 111.43 276.395 112.098ZM267.12 135.879C272.388 144.968 286.263 158.139 287.339 153.724C288.553 148.483 289.113 143.112 289.009 137.734C314.422 146.712 331.674 163.166 339.186 185.37C333.748 182.775 327.773 181.503 321.749 181.66C321.49 175.557 313.124 163.759 309.915 160.216C309.265 159.493 308.06 160.42 308.764 161.144C313.576 166.592 317.258 172.942 319.598 179.824C310.508 172.979 292.199 163.426 267.101 171.291C260.59 160.177 251.082 151.119 239.666 145.154C247.881 139.781 257.329 136.589 267.12 135.879ZM170.381 94.03C181.537 90.9852 193.257 90.6482 204.569 93.0468C204.379 96.1904 204.478 99.3449 204.866 102.47H204.532C202.992 95.3841 193.124 93.1952 189.803 100.615C188.107 100.04 186.268 100.04 184.572 100.615C181.363 93.9372 172.07 96.089 170.363 102.693H170.01C170.4 99.8228 170.525 96.9229 170.381 94.03ZM195.609 109.297C195.943 108.351 198.948 101.339 200.896 101.135C201.058 101.133 201.219 101.169 201.364 101.241C201.509 101.314 201.635 101.419 201.731 101.55C201.827 101.681 201.89 101.832 201.916 101.992C201.942 102.152 201.929 102.316 201.879 102.47C200.223 104.829 198.748 107.31 197.464 109.89C197.001 111.04 195.183 110.595 195.609 109.297ZM192.92 106.7C192.697 107.256 191.695 107.59 191.343 106.941C190.991 106.292 191.844 103.824 194.255 100.207C194.867 99.2982 195.443 98.853 195.943 98.9272C196.106 98.9737 196.255 99.0595 196.378 99.1769C196.5 99.2943 196.592 99.4399 196.645 99.6009C196.698 99.7619 196.711 99.9334 196.682 100.101C196.654 100.268 196.585 100.425 196.481 100.56C195.07 102.467 193.875 104.527 192.92 106.7ZM176.781 109.779C177.579 108.035 178.469 106.273 179.323 104.548C179.414 104.381 179.548 104.243 179.711 104.146C179.874 104.049 180.06 103.998 180.25 103.998C180.44 103.998 180.626 104.049 180.789 104.146C180.952 104.243 181.086 104.381 181.178 104.548C181.294 104.724 181.356 104.93 181.356 105.141C181.356 105.353 181.294 105.559 181.178 105.735C180.361 107.349 179.527 109.037 178.636 110.669C177.931 111.597 176.225 110.892 176.781 109.779ZM174.537 107.442L174.425 107.571C173.85 108.406 172.403 107.868 172.793 106.811C173.864 103.961 175.232 101.231 176.874 98.6675C177.672 97.7029 179.285 98.5376 178.729 99.6692C177.412 102.303 175.798 104.77 174.537 107.442ZM167.914 107.609C169.102 107.108 169.435 105.754 169.769 104.585L170.159 104.474C170.062 105.761 170.22 107.054 170.624 108.28C171.028 109.505 171.671 110.639 172.515 111.615C173.515 112.598 174.769 113.283 176.136 113.595C177.503 113.906 178.93 113.832 180.258 113.38C181.585 112.928 182.761 112.116 183.654 111.034C184.547 109.953 185.121 108.645 185.314 107.256C185.122 109.043 185.042 110.839 185.073 112.636C185.073 113.749 184.813 115.14 186.186 115.233H188.041C189.006 115.233 189.265 113.563 188.152 113.545H186.78C186.671 110.239 186.851 106.931 187.318 103.657C187.447 102.748 186.13 102.619 185.945 103.472C185.129 107.46 185.945 105.179 185.221 102.229C186.517 101.765 187.933 101.765 189.228 102.229C188.82 103.716 188.739 105.274 188.992 106.796C189.245 108.317 189.826 109.765 190.694 111.04C191.355 111.897 192.192 112.601 193.149 113.105C194.106 113.61 195.16 113.903 196.24 113.965C197.32 114.026 198.401 113.855 199.409 113.462C200.417 113.07 201.329 112.465 202.083 111.69C203.906 109.656 204.876 106.999 204.792 104.27H205.144C205.367 105.883 205.701 108.109 207.407 107.98C207.222 114.324 207.778 125.194 202.751 129.164C202.102 129.683 201.36 130.277 201.267 130.87C201.035 132.836 201.035 134.822 201.267 136.788C201.805 141.926 192.808 152.091 188.152 156.432C179.174 144.226 176.596 143.021 176.614 132.317C176.614 131.241 176.484 131.074 175.742 130.703C168.23 127.068 168.916 116.587 167.914 107.609ZM174.852 136.176C175.056 141.87 179.527 149.569 187.41 157.861C189.006 159.938 203.104 142.631 202.825 138.884V135.749C240.797 140.219 268.01 162.071 272.351 191.529C256.583 188.431 236.661 192.067 233.285 192.716C231.837 183.49 229.108 174.512 225.178 166.041C225.112 165.876 224.983 165.745 224.819 165.675C224.656 165.605 224.471 165.604 224.306 165.67C224.142 165.736 224.01 165.866 223.94 166.029C223.871 166.193 223.869 166.377 223.935 166.542C227.346 174.903 229.834 183.611 231.355 192.512C221.598 182.235 206.758 177.672 186.075 178.599C173.625 179.177 161.259 180.934 149.142 183.849C150.111 178.192 152.42 172.849 155.875 168.267C155.951 168.129 155.974 167.968 155.94 167.814C155.906 167.66 155.817 167.524 155.69 167.431C155.562 167.338 155.406 167.294 155.249 167.308C155.092 167.322 154.945 167.393 154.837 167.507C150.939 172.323 148.379 178.081 147.417 184.202C133.967 187.428 120.907 192.099 108.462 198.133C110.168 161.793 143.762 142.316 174.852 136.176ZM94.4007 101.821C94.3816 103.582 94.487 105.343 94.716 107.089C88.038 107.256 77.4274 109.853 69.5251 112.302C69.3211 110.669 68.8573 107.701 68.8388 105.939C76.7901 102.149 85.6615 100.72 94.4007 101.821ZM88.5018 111.782C84.7918 118.089 85.5894 119.202 84.3466 119.202C84.2071 119.211 84.0676 119.186 83.9399 119.129C83.8122 119.072 83.7 118.986 83.6127 118.877C83.5255 118.768 83.4657 118.639 83.4384 118.502C83.4112 118.365 83.4173 118.224 83.4562 118.089C85.1442 111.708 86.7581 110.521 87.5743 110.373C87.7522 110.336 87.9369 110.354 88.1046 110.424C88.2722 110.494 88.4152 110.612 88.515 110.764C88.6148 110.915 88.6669 111.093 88.6645 111.275C88.6622 111.457 88.6055 111.633 88.5018 111.782ZM82.7698 113.174C82.0835 114.305 81.9165 115.882 80.9148 115.641C79.9131 115.4 80.6366 113.136 81.2302 111.931C81.8238 110.725 82.3432 110.706 82.6956 110.799C82.8942 110.853 83.0709 110.968 83.2007 111.128C83.3305 111.288 83.4069 111.484 83.4191 111.69C83.3464 112.235 83.1213 112.75 82.7698 113.174ZM68.9686 116.884C68.7646 117.366 68.746 118.85 67.7443 118.85C67.5494 118.857 67.3575 118.799 67.1995 118.685C67.0414 118.571 66.9263 118.407 66.8725 118.219C66.7743 116.921 67.187 115.637 68.0226 114.639C68.1949 114.485 68.4115 114.39 68.6414 114.366C68.8714 114.343 69.1028 114.393 69.3025 114.509C69.7477 114.806 69.655 115.585 68.9686 116.828V116.884ZM69.655 121.206C71.343 115.14 72.3076 114.249 72.8827 114.12C73.0009 114.092 73.1244 114.099 73.2391 114.138C73.3539 114.177 73.4553 114.248 73.5319 114.342C73.7841 114.634 73.9107 115.014 73.8844 115.4L71.4358 121.725C71.3595 121.961 71.1926 122.157 70.9717 122.271C70.7508 122.384 70.494 122.404 70.2578 122.328C70.0217 122.252 69.8255 122.085 69.7124 121.864C69.5994 121.643 69.5787 121.386 69.655 121.15V121.206ZM71.51 124.007C75.0716 122.968 76.2217 123.265 75.8321 117.848C75.7023 116.309 75.4055 112.803 76.9637 112.858C78.2251 112.858 78.2622 118.72 80.1357 120.538C82.0093 122.356 84.4393 121.076 86.4798 120.538C92.0448 119.017 90.8205 116.642 90.4124 109.278L95.087 108.907C97.1832 119.777 100.003 111.634 101.895 110.41C103.101 109.649 104.139 111.319 104.362 112.599C104.789 115.344 102.507 118.349 102.989 122.374C104.082 128.201 105.954 133.853 108.554 139.181C104.492 146.897 92.8239 154.021 87.6299 156.84C85.441 148.901 85.2555 138.476 83.9199 138.513C77.7613 138.55 73.7174 133.894 71.4358 123.951L71.51 124.007ZM83.7159 144.597C84.0498 147.398 85.4225 159.437 87.4259 158.436C92.4715 156.061 107.831 145.97 110.02 139.477C113.266 140.219 123.394 138.253 139.125 147.732C127.517 154.666 118.202 164.858 112.339 177.041C97.3316 175.186 78.763 172.867 63.1625 181.104C67.9298 169.862 70.7865 168.749 69.4324 167.859C69.3623 167.811 69.2832 167.778 69.1999 167.761C69.1166 167.744 69.0308 167.745 68.9477 167.762C68.8645 167.779 68.7857 167.813 68.716 167.862C68.6463 167.91 68.5871 167.973 68.542 168.044C68.0597 168.768 61.2889 179.954 61.122 182.235C58.5064 183.831 52.9229 187.912 51.2534 191.121C44.4338 191.254 37.7884 193.297 32.0727 197.02C37.7119 175.186 55.5384 157.063 83.6417 144.542L83.7159 144.597ZM35.6157 225.605C28.5296 218.185 30.0507 205.775 31.5162 198.967C49.621 187.077 73.5505 192.159 102.674 214.104C92.8796 218.296 50.0847 240.612 35.6157 225.605ZM53.1269 191.084C67.8556 174.778 89.151 175.817 111.578 178.581C105.827 191.844 105.327 205.849 110.131 217.276C93.4361 204.773 73.7174 191.028 53.1269 191.028V191.084ZM136.379 233.749C118.108 233.749 108.295 217.703 108.554 199.895C134.524 188.227 157.211 182.254 182.068 180.529C204.773 178.952 220.058 183.089 230.075 193.514C181.14 204.477 160.94 233.693 136.379 233.693V233.749ZM248.57 231.708C230.409 235.808 200.34 225.086 178.97 216.534C213.028 196.426 243.673 188.839 272.592 193.347C274.874 214.067 266.341 227.683 248.57 231.708ZM274.299 203.623C275.261 192.897 272.994 182.128 267.788 172.701C287.71 167.544 304.535 170.549 319.152 181.864C299.953 183.293 280.606 198.281 274.28 203.623H274.299ZM324.755 218.037C313.402 218.037 289.51 206.907 278.509 202.418C290.27 193.514 304.201 184.072 320.97 183.404C327.521 182.999 334.055 184.432 339.836 187.541C344.807 204.31 342.321 217.925 324.736 218.037H324.755Z" fill="#4DA2FD"/>
</svg>
