<svg width="200" height="200" viewBox="0 0 200 200" fill="none" xmlns="http://www.w3.org/2000/svg">
<rect width="200" height="200" rx="10" fill="#592454"/>
<g clip-path="url(#clip0_391_607)">
<mask id="mask0_391_607" style="mask-type:luminance" maskUnits="userSpaceOnUse" x="25" y="25" width="150" height="150">
<path d="M175 25H25V175H175V25Z" fill="white"/>
</mask>
<g mask="url(#mask0_391_607)">
<path d="M102.952 57.4408C110.428 58.4201 117.529 61.2931 123.582 65.7872C124.803 66.7518 126.043 67.6376 127.125 68.74C135.383 76.3727 140.435 86.856 141.259 98.0707C143.572 98.2833 145.767 99.1904 147.555 100.673C149.343 102.155 150.641 104.144 151.279 106.378C152.025 109.142 151.904 112.069 150.932 114.762C149.96 117.456 148.185 119.786 145.846 121.437C143.681 122.953 141.023 123.799 138.366 123.74C137.381 123.74 136.397 123.425 135.413 123.386C135.039 123.819 134.763 124.35 134.468 124.823C130.885 130.474 126.06 135.232 120.36 138.736C114.659 142.239 108.234 144.395 101.574 145.039C99.4089 145.177 97.2632 145.433 95.0782 145.177C87.3995 144.809 79.951 142.437 73.4733 138.297C66.9957 134.157 61.7147 128.394 58.1554 121.58C54.5962 114.766 52.8828 107.139 53.1855 99.4577C53.4883 91.7762 55.7968 84.3077 59.8813 77.7951C63.5716 71.8774 68.6165 66.9222 74.5995 63.3386C80.5824 59.755 87.3319 57.6457 94.2907 57.1849C97.1648 56.9093 100.078 57.1258 102.952 57.4408Z" fill="black"/>
<path fill-rule="evenodd" clip-rule="evenodd" d="M123.189 66.9691C115.522 61.1218 106.096 58.0538 96.4563 58.2684C93.8973 58.229 91.2988 58.5833 88.7792 59.0558C81.221 60.5728 74.2111 64.0977 68.486 69.2601C62.761 74.4225 58.5323 81.0318 56.2443 88.3932C53.9563 95.7547 53.6935 103.597 55.4835 111.095C57.2736 118.593 61.0504 125.47 66.417 131.005C72.9362 137.722 81.4688 142.129 90.7199 143.557C99.9709 144.985 109.435 143.356 117.677 138.918C124.567 135.217 130.315 129.607 134.291 122.875L133.7 122.56C133.149 122.284 132.578 121.969 132.126 121.575C131.693 121.182 132.067 120.434 132.657 120.65C132.952 120.788 133.248 120.965 133.523 121.123C135.339 122.147 137.413 122.625 139.494 122.499C141.575 122.373 143.576 121.649 145.256 120.414C147.389 118.908 149.007 116.781 149.888 114.322C150.768 111.863 150.869 109.192 150.177 106.674C149.438 104.112 147.748 101.929 145.452 100.571C144.059 99.7672 142.497 99.2986 140.892 99.2029C139.286 99.1072 137.679 99.3871 136.2 100.02C135.885 100.178 135.531 100.316 135.216 100.276C134.724 100.237 134.665 99.4495 135.098 99.2526C136.673 98.4652 138.346 98.1502 140.098 97.9928C139.302 86.9086 134.218 76.5709 125.925 69.1739C125.059 68.3865 124.212 67.5794 123.189 66.9495V66.9691ZM144.37 105.591C144.763 105.355 144.626 104.587 144.094 104.607C143.7 104.607 143.267 104.764 142.874 104.922L142.598 105.001C140.812 105.559 139.12 106.382 137.578 107.442C137.145 107.835 137.145 108.308 137.598 108.662C137.933 108.857 138.275 109.041 138.622 109.213C139.599 109.618 140.474 110.237 141.181 111.024C141.141 111.398 140.787 111.694 140.511 111.91L140.472 111.949C139.704 112.54 138.74 112.934 137.795 113.327C137.303 113.524 136.83 113.721 136.397 113.938C136.063 114.095 135.885 114.371 136.082 114.705C136.279 115.099 136.712 114.922 137.067 114.804L137.185 114.764L138.248 114.312C139.311 113.859 140.413 113.426 141.279 112.737C141.811 112.323 142.283 111.733 142.342 111.024C142.244 110.355 141.811 109.902 141.299 109.489C140.578 108.954 139.814 108.48 139.015 108.071L138.799 107.953C139.862 107.363 140.925 106.851 142.067 106.438L143.051 106.103C143.502 105.963 143.942 105.792 144.37 105.591Z" fill="#9E5622"/>
<path d="M103.189 97.8746C105.453 97.5596 107.854 97.9139 109.882 98.9573C111.378 99.7447 112.697 100.985 113.445 102.501C114.075 103.84 114.221 105.357 113.858 106.792C113.464 108.367 112.441 109.784 111.161 110.768C109.652 111.893 107.885 112.622 106.022 112.89C104.158 113.158 102.258 112.957 100.492 112.304C98.7765 111.689 97.3011 110.545 96.2794 109.036C95.6705 108.097 95.3051 107.022 95.2164 105.906C95.1784 104.959 95.3391 104.014 95.6883 103.132C96.0375 102.251 96.5675 101.452 97.244 100.788C98.8188 99.1344 100.964 98.2289 103.189 97.8746Z" fill="black"/>
<path d="M103.386 99.0359C106.142 98.6422 109.233 99.3509 111.221 101.378C112.52 102.658 113.268 104.725 112.737 106.497C112.343 108.111 111.221 109.351 109.863 110.276C108.614 111.058 107.212 111.561 105.751 111.752C104.29 111.942 102.805 111.815 101.398 111.378C99.6855 110.847 98.0319 109.764 97.1067 108.209C96.5162 107.225 96.2997 106.044 96.4178 104.922C96.5556 103.583 97.3036 102.343 98.2485 101.398C99.6264 100.079 101.497 99.2918 103.367 99.0359H103.386Z" fill="white"/>
<path d="M66.0436 100.926C69.5081 100.395 73.5042 101.596 75.4333 104.686C76.516 106.379 76.6735 108.623 75.827 110.434C75.2365 111.674 74.2522 112.718 73.1105 113.466C71.6625 114.37 70.0114 114.898 68.3073 115.001C66.8632 115.106 65.4141 114.881 64.0702 114.342C62.7263 113.803 61.5229 112.965 60.5514 111.891C59.5023 110.67 58.9724 109.088 59.0751 107.482C59.1735 105.848 59.9806 104.391 61.142 103.269C62.5003 101.989 64.2129 101.241 66.0436 100.926Z" fill="black"/>
<path d="M67.4405 101.989C69.3302 101.93 71.2791 102.442 72.8145 103.564C73.8381 104.312 74.6846 105.375 75.0192 106.595C75.3608 107.823 75.2126 109.136 74.6058 110.257C74.1085 111.079 73.4518 111.793 72.6742 112.358C71.8967 112.922 71.014 113.326 70.0783 113.544C68.6962 113.922 67.243 113.958 65.8439 113.649C64.4448 113.341 63.1416 112.697 62.0468 111.772C61.4228 111.233 60.9339 110.555 60.6194 109.793C60.3049 109.03 60.1735 108.205 60.2358 107.383C60.3735 106.32 60.846 105.296 61.5743 104.489C62.3311 103.696 63.2415 103.065 64.25 102.635C65.2586 102.205 66.3442 101.985 67.4405 101.989Z" fill="white"/>
<path d="M101.87 102.677C102.385 102.538 102.927 102.532 103.444 102.659C103.962 102.787 104.439 103.043 104.83 103.405C105.222 103.767 105.515 104.223 105.682 104.729C105.85 105.235 105.886 105.776 105.788 106.3C105.659 107.012 105.286 107.658 104.733 108.125C104.179 108.592 103.48 108.852 102.756 108.859C101.984 108.887 101.228 108.629 100.635 108.134C100.042 107.638 99.6526 106.941 99.5426 106.176C99.4326 105.411 99.6096 104.633 100.039 103.99C100.469 103.348 101.121 102.887 101.87 102.697V102.677Z" fill="black"/>
<path d="M102.284 103.78C103.071 103.642 103.819 103.898 104.292 104.568C104.882 105.355 104.744 106.497 104.016 107.166C103.15 107.953 101.693 107.835 101.044 106.831C100.858 106.563 100.742 106.252 100.706 105.927C100.67 105.602 100.716 105.273 100.839 104.971C100.962 104.668 101.159 104.401 101.411 104.193C101.663 103.985 101.963 103.843 102.284 103.78Z" fill="white"/>
<path d="M115.098 103.977C115.433 104.036 115.807 103.937 116.004 104.252C116.318 104.744 116.476 105.355 116.574 105.925C116.712 106.967 116.61 108.027 116.276 109.023C115.942 110.019 115.384 110.926 114.645 111.673C113.996 112.264 113.09 112.855 112.204 112.894C111.653 112.894 111.358 112.362 111.732 111.949C112.381 111.614 113.031 111.516 113.602 111.043C114.842 110 115.492 108.288 115.492 106.693C115.492 105.906 115.177 105.276 114.96 104.528L115.098 103.977ZM68.1885 104.823C69.0744 104.646 69.9996 104.921 70.6885 105.473C71.2426 105.936 71.632 106.565 71.7988 107.268C71.9655 107.97 71.9006 108.708 71.6137 109.37C71.1019 110.532 69.9996 111.378 68.7004 111.378C67.0271 111.496 65.5507 110.118 65.472 108.465C65.2752 106.752 66.4956 105.118 68.1885 104.823Z" fill="black"/>
<path d="M68.0117 106.063C69.0157 105.669 70.1771 106.181 70.5708 107.185C71.122 108.445 70.2558 110.078 68.8582 110.216C68.4732 110.273 68.08 110.214 67.7292 110.045C67.3783 109.877 67.0859 109.607 66.8897 109.271C66.7286 108.992 66.6296 108.681 66.5996 108.36C66.5696 108.038 66.6091 107.714 66.7156 107.41C66.8221 107.105 66.993 106.827 67.2167 106.595C67.4404 106.362 67.7115 106.181 68.0117 106.063Z" fill="white"/>
<path d="M58.3465 107.796C58.4449 108.583 58.0709 109.253 58.0315 110.04C57.9725 111.221 58.504 112.422 59.4685 113.17C59.941 113.544 60.4528 113.721 60.9843 114.016C61.378 114.174 61.3583 114.41 61.2992 114.784C61.004 115.138 60.6496 115.06 60.2559 114.942C59.5296 114.684 58.87 114.268 58.3251 113.723C57.7802 113.178 57.3638 112.518 57.1063 111.792C56.8948 111.169 56.8102 110.511 56.8575 109.855C56.9048 109.199 57.0831 108.559 57.3819 107.973C57.6378 107.599 57.9725 107.796 58.3662 107.796H58.3465Z" fill="black"/>
<path d="M96.2992 84.3312C97.5197 84.2328 98.8779 84.2131 99.9409 84.9217C100.289 85.137 100.562 85.4556 100.721 85.8332C100.88 86.2107 100.917 86.6284 100.827 87.028C100.512 88.2288 99.5078 89.1737 98.5433 89.8627C96.7527 91.1057 94.6843 91.8898 92.5197 92.1461C91.4173 92.2446 90.059 92.2249 89.0748 91.6343C88.7194 91.4392 88.4314 91.1411 88.2487 90.7792C88.066 90.4173 87.9971 90.0086 88.0512 89.6068C88.248 88.465 89.1338 87.5398 90.0197 86.8509C91.811 85.4729 94.0551 84.6265 96.3189 84.3312H96.2992ZM70.5118 87.6383C72.3022 87.4757 74.1013 87.8382 75.689 88.6816C76.4567 89.1146 77.1456 89.843 77.2638 90.7485C77.3228 91.5753 76.8701 92.2839 76.2205 92.7564C75.3346 93.465 74.2913 93.7406 73.189 93.9375C71.2204 94.1343 69.1338 93.9965 67.3819 93.032C66.6141 92.5989 65.8267 91.8902 65.7283 90.965C65.5708 90.1186 66.122 89.2918 66.7716 88.8194C67.8824 88.0816 69.1788 87.6722 70.5118 87.6383Z" fill="black"/>
<path d="M96.496 118.091C96.6142 119.469 96.3189 120.689 96.1811 122.047C95.6496 126.811 94.3504 131.496 92.4212 135.866C91.6929 137.323 91.1023 138.976 89.6653 139.882C88.9173 140.433 87.8937 140.276 87.0669 139.902C86.1618 139.482 85.336 138.909 84.626 138.209C82.2496 135.761 80.2584 132.967 78.7204 129.921C77.4015 127.441 76.437 124.843 75.374 122.264C75.1771 121.85 75.1378 121.457 75.5708 121.201C76.437 121.181 77.2834 121.476 78.1496 121.476C80.0984 121.555 82.0866 121.575 84.0157 121.299C87.5 120.906 90.9252 119.902 94.1732 118.563C95 118.268 95.5512 117.717 96.496 118.091Z" fill="black"/>
<path d="M95.4728 119.291C95.1418 122.484 94.5493 125.644 93.7012 128.74C91.8843 128.704 90.0906 129.152 88.5043 130.039C86.3144 131.083 84.4548 132.711 83.1303 134.744C81.6731 132.8 80.4012 130.724 79.3311 128.543C78.2681 126.555 77.4807 124.468 76.5752 122.401C78.4256 122.559 80.2169 122.795 82.087 122.598C86.6539 122.46 91.2799 121.082 95.4728 119.291Z" fill="white"/>
<path d="M93.3466 129.942C92.6124 132.576 91.5822 135.118 90.2758 137.52C89.9869 138.124 89.5286 138.63 88.9569 138.977C88.1695 139.312 87.1852 138.741 86.5159 138.288C85.4529 137.619 84.823 136.654 83.9766 135.788C84.4283 134.73 85.131 133.798 86.0238 133.072C87.5592 131.753 89.3899 130.709 91.3388 130.119C92.0081 129.922 92.6577 129.902 93.3466 129.922V129.942Z" fill="#EA869E"/>
<path d="M113.661 120.749C114.547 120.197 115.689 121.024 115.374 122.048C115.138 122.934 113.937 123.091 113.405 122.422C113.31 122.296 113.241 122.152 113.203 121.999C113.164 121.846 113.156 121.687 113.18 121.531C113.204 121.375 113.259 121.226 113.341 121.091C113.424 120.957 113.533 120.84 113.661 120.749ZM59.6652 121.064C60.1179 120.808 60.7872 120.945 61.1218 121.339C61.7124 121.93 61.3187 123.229 60.4132 123.17C59.9998 122.815 59.7242 122.304 59.5077 121.792C59.3896 121.477 59.3502 121.28 59.6652 121.064ZM121.358 121.182C121.614 121.044 121.949 121.083 122.224 121.123C122.894 121.28 123.287 122.126 122.913 122.737C122.598 123.308 121.909 123.524 121.338 123.17C120.571 122.737 120.61 121.595 121.338 121.182H121.358ZM66.5746 121.674C67.362 121.241 68.4447 121.91 68.2872 122.835C68.2085 123.76 67.0864 124.075 66.4171 123.544C65.8266 123.052 65.925 122.087 66.5746 121.674ZM117.815 125.119C118.642 124.823 119.567 125.473 119.39 126.378C119.252 127.363 117.992 127.619 117.401 126.89C116.89 126.3 117.145 125.453 117.815 125.119ZM63.7793 125.552C64.5077 125.63 65.0392 126.438 64.7242 127.126C64.488 127.619 64.0746 127.717 63.5825 127.875C63.2675 127.441 62.8541 127.028 62.6179 126.536C62.4604 125.906 63.2085 125.434 63.799 125.552H63.7793Z" fill="#7A624E"/>
<path d="M133.07 35.4336C135.669 35.4926 138.248 36.4178 140.255 38.0911C140.492 38.2879 140.452 38.6816 140.255 38.8785C139.941 39.095 139.547 38.9769 139.173 38.9572C138.042 38.8681 136.905 39.0019 135.826 39.3509C133.287 40.1383 131.279 41.8312 129.645 43.8785C130.944 43.4848 132.283 43.2486 133.661 43.2879C136.988 43.3863 140.118 44.4887 142.952 46.2013C146.555 48.3667 149.685 51.595 151.496 55.4139C152.671 57.7417 153.031 60.3964 152.519 62.9533C152.086 64.784 150.925 66.4178 149.33 67.4415C148.031 68.3076 146.574 68.6619 145.059 68.8785C145.708 69.9612 146.437 70.9651 146.968 72.1265C148.543 75.4139 149.232 79.2525 149.606 82.8745C149.685 84.3115 149.803 85.7682 149.822 87.2052C149.724 89.2131 149.763 91.1423 149.429 93.1108C149.232 95.0793 148.858 97.0871 148.189 98.9769C147.913 99.6856 147.519 100.591 146.811 100.985C146.496 101.182 146.181 100.926 145.885 100.788C144.252 99.8037 142.322 99.2131 140.393 99.2328C140.307 100.993 139.893 102.722 139.173 104.331C138.527 105.808 137.568 107.125 136.361 108.193C135.154 109.26 133.729 110.052 132.185 110.512C130.546 110.978 128.807 110.951 127.185 110.434C126.791 110.315 126.752 109.784 127.066 109.548C127.598 109.075 128.169 108.721 128.602 108.15C130.216 106.005 131.21 103.459 131.476 100.788C131.633 98.8194 131.614 96.5753 130.551 94.8627C130.216 94.2919 129.685 94.0753 129.252 93.6029C129.115 92.205 128.742 90.8405 128.149 89.5675C127.952 89.095 127.618 88.6423 127.893 88.1501C128.208 87.5005 128.602 86.91 128.976 86.28C128.287 86.3588 127.677 86.3785 127.145 85.8863C126.122 84.9021 125.472 83.5241 125.118 82.1659C124.881 81.2997 124.468 80.4336 124.37 79.5478C124.37 79.2525 124.566 79.095 124.822 79.036C125.669 78.7997 126.338 78.347 127.066 77.8745C127.815 77.3824 128.307 76.6934 128.759 75.9454C127.185 76.1029 125.531 76.1226 123.976 75.8273C121.83 75.3942 120.039 74.41 118.129 73.4257C117.204 72.9139 116.338 72.4808 115.807 71.5163C113.681 71.0045 111.555 70.4926 109.448 69.8824C105.984 68.9178 102.637 67.7958 99.0153 67.6383C95.846 67.4808 92.6177 67.9139 89.5271 68.6226C88.6019 68.8194 87.7948 69.2525 87.0271 69.8037L86.4956 69.5281C86.594 68.1501 87.4011 66.7722 88.0114 65.5911C86.4736 66.7277 85.1078 68.0802 83.9563 69.6068C83.6807 69.9808 83.5035 70.473 83.1689 70.7879C82.283 71.0635 81.2397 70.906 80.3145 70.9454C78.9956 70.9848 77.6767 70.8273 76.3775 70.7486C75.1374 71.1226 74.0153 71.7919 72.8145 72.2446C70.1767 73.2289 67.4799 73.8194 64.6649 73.2682C63.9563 74.036 63.287 74.843 62.6964 75.6895C61.1507 77.888 59.769 80.1974 58.5626 82.5989C57.3815 84.8824 56.6334 87.2446 55.8263 89.6856C55.5507 90.6304 55.4326 91.6344 55.1767 92.5793C54.9602 93.3667 54.9208 94.1541 54.783 94.9415C54.35 95.4139 53.5035 95.532 52.9326 95.8667C49.3643 98.2543 46.8323 101.905 45.846 106.083C45.7082 106.831 45.7673 107.56 45.7082 108.308C45.4523 108.741 44.9011 108.78 44.6649 108.308C43.9169 106.674 43.6807 104.764 43.6807 102.973C43.8488 99.3695 45.027 95.886 47.0807 92.9203C49.1345 89.9546 51.9809 87.6263 55.2948 86.2013C54.5074 84.2328 54.2515 82.0675 54.1728 79.9415C54.0941 77.8549 54.4878 75.8667 54.9011 73.8391C55.4917 71.3194 56.3775 68.9178 57.8539 66.7919C56.597 66.6306 55.4245 66.072 54.5074 65.1974C53.1196 63.6919 52.3591 61.7133 52.3815 59.6659C52.39 56.677 53.3178 53.763 55.0389 51.3194C56.4311 49.1935 58.4758 47.577 60.8657 46.7131C61.6728 44.5668 63.15 42.7376 65.0783 41.4966C65.6295 41.2407 65.9641 41.3982 66.22 41.9297C65.919 42.7649 65.7465 43.641 65.7082 44.5281C66.8893 43.6816 68.2673 43.2486 69.6846 42.973C71.7515 42.5202 74.0153 42.6383 76.0429 43.2486C76.8933 43.5128 77.6811 43.9475 78.358 44.5263C79.0349 45.105 79.5867 45.8156 79.9799 46.6147C80.6491 48.2252 80.6632 50.0333 80.0192 51.6541C83.2962 50.6121 86.7186 50.1004 90.157 50.1383C92.1649 50.1383 94.1925 50.3745 96.1413 50.9257C97.5055 51.3556 98.8038 51.9717 99.9996 52.7564C100.562 53.0994 101.035 53.5718 101.378 54.1344C105.118 52.9139 109.055 52.3627 112.992 52.5596C115.019 52.658 117.047 53.0911 119.015 53.6226C118.392 52.121 118.084 50.5073 118.111 48.8818C118.139 47.2562 118.5 45.6537 119.173 44.1737C121.535 38.8588 127.244 35.1974 133.07 35.4533V35.4336ZM136.318 122.441C137.185 122.619 138.09 122.56 138.976 122.619C140.236 122.658 141.338 122.343 142.539 122.028C142.893 121.93 143.129 121.89 143.464 122.087C144.277 122.587 144.926 123.312 145.334 124.174C146.082 125.67 146.122 127.323 145.925 128.977C145.672 130.525 145.085 132 144.204 133.299C143.324 134.597 142.171 135.688 140.826 136.497C140.393 136.733 140.039 136.851 139.645 136.438C139.566 135.926 140.039 135.434 140.196 134.941C140.393 134.095 140.393 133.17 140.236 132.323C139.659 129.712 138.084 127.43 135.846 125.965C134.94 125.335 133.976 125.414 133.366 124.39C133.858 123.682 134.271 122.894 134.763 122.166C135.236 121.93 135.826 122.363 136.318 122.461V122.441Z" fill="black"/>
<path d="M137.873 37.8359C134.723 38.0328 131.77 39.7848 129.684 42.0879C127.926 43.9987 126.664 46.3118 126.008 48.8241C125.353 51.3364 125.324 53.9712 125.924 56.4974C124.211 55.5918 122.42 54.7651 120.589 54.1548C119.684 52.6785 119.211 50.9659 119.231 49.2139C119.265 46.2712 120.387 43.4452 122.381 41.2808C124.761 38.576 128.1 36.9029 131.692 36.6155C133.818 36.4186 135.963 36.8714 137.873 37.8556V37.8359ZM64.7429 43.1115C64.3689 44.7454 64.5855 46.3399 64.7429 47.9934C64.8807 49.6273 65.3335 51.3005 65.8453 52.8556C66.3965 54.6273 67.5185 56.2808 68.5422 57.8163C68.2862 58.1312 68.05 58.643 67.676 58.8005C66.5146 59.332 65.3925 59.8832 64.3295 60.5722C63.4831 60.1785 62.8138 59.5289 62.2823 58.8005C61.2981 57.2257 60.7666 55.395 60.7469 53.5446C60.6577 50.708 61.3525 47.9017 62.7547 45.4344C63.2666 44.5092 63.9949 43.8202 64.7232 43.1115H64.7429Z" fill="#592454"/>
<path d="M72.8341 43.8587C74.4876 43.898 76.0821 44.2327 77.4404 45.2366C78.3656 45.8469 78.9758 46.7524 79.2711 47.835C79.6648 49.2917 79.3695 50.7484 78.6412 52.028C76.0934 52.7925 73.6427 53.8494 71.338 55.1776C70.5506 55.65 69.8616 56.2602 69.212 56.9492C68.2868 55.5713 67.342 54.0752 66.8695 52.461C66.1763 50.4044 65.8044 48.2531 65.7672 46.0831C66.2987 45.5909 66.7514 45.0988 67.4207 44.8035C69.1333 44.0949 70.9837 43.7602 72.8341 43.8587ZM143.799 48.1303C146.985 50.3217 149.457 53.4024 150.905 56.9886C151.528 58.5838 151.744 60.3087 151.535 62.0083C151.417 62.9073 151.106 63.7702 150.623 64.538C150.141 65.3058 149.498 65.9604 148.74 66.4571C147.44 67.2839 145.787 67.776 144.251 67.7366C143.759 67.3232 143.366 66.7917 142.834 66.4177C140.767 64.8232 138.307 63.6618 136.062 62.3429C133.149 60.7287 130.354 58.9374 127.421 57.3232C125.885 53.6421 126.594 49.1736 128.464 45.7091C129.731 44.9572 131.165 44.5311 132.637 44.4689C136.574 44.213 140.649 45.8862 143.799 48.1303ZM60.3538 48.0909C59.3695 51.4177 59.1727 55.335 60.8065 58.4846C61.338 59.6657 62.2239 60.5516 63.2278 61.2996C61.4561 62.4807 59.9601 63.9571 58.6412 65.6303C57.775 65.5713 56.9679 65.5122 56.2199 65.0398C54.7239 64.1933 53.9758 62.6185 53.6609 60.9846C53.3039 58.2968 53.8362 55.566 55.1766 53.2091C56.328 51.006 58.1377 49.2169 60.3538 48.0909ZM92.5191 51.3783C93.7002 51.4571 94.8813 51.6933 96.0624 52.028C97.1648 52.3429 98.2278 52.9531 99.2317 53.524C99.7042 53.7602 100.078 54.1146 100.433 54.5083C98.9365 55.1579 97.4798 55.8468 96.1215 56.7524C93.4246 58.5437 91.1805 60.8862 89.3105 63.524C88.9724 63.6114 88.6525 63.758 88.3656 63.9571C86.1018 65.4925 83.9758 67.5004 82.5585 69.8626C80.6884 69.9807 78.8183 69.902 76.9876 69.6657C75.0585 69.4689 72.9719 69.0555 71.2987 68.0319C70.0386 67.2185 69.003 66.1016 68.2868 64.7839C68.0113 64.3508 67.9522 63.6421 67.5191 63.3665C67.0467 63.2091 66.7317 63.6815 66.8302 64.1342C67.1783 65.2798 67.7844 66.3303 68.6018 67.2051C70.1159 68.9112 72.1755 70.0384 74.4286 70.3941C72.2061 71.4768 69.8044 72.1439 67.342 72.3626C65.7672 72.402 64.1924 72.1067 62.9719 71.0831C62.2435 70.5516 61.8302 69.8232 61.2396 69.1736C60.7278 69.4295 60.5309 69.6461 60.7278 70.2366C61.4174 71.3213 62.3818 72.2042 63.5231 72.7957C62.3948 74.1113 61.362 75.506 60.4325 76.9689C58.7511 79.5903 57.3083 82.3573 56.1215 85.2366C55.4002 82.7457 55.1531 80.1415 55.3931 77.5594C55.7868 74.7248 56.3577 72.0083 57.6176 69.4098C58.6529 67.3983 60.0018 65.5643 61.6136 63.9768C63.2081 62.4807 65.0191 61.2405 66.9679 60.2366C67.0861 60.5516 67.1451 60.7681 67.4798 60.8665C68.0309 60.8272 68.1884 60.3941 68.464 59.9807C69.1921 58.5565 70.2439 57.3227 71.5349 56.3783C73.1097 55.2957 74.9207 54.5476 76.712 53.8783C81.6333 52.0673 87.2042 50.6894 92.4994 51.3587L92.5191 51.3783Z" fill="#592454"/>
<path d="M108.07 53.8395C110.176 53.5245 112.243 53.6427 114.369 53.7214C119.468 54.4301 123.897 56.5364 128.287 59.1151C131.594 61.0836 134.901 63.0324 138.267 64.8828C139.645 65.6702 141.003 66.3986 142.243 67.4025C143.188 68.1308 143.877 69.2529 144.527 70.2371C146.771 73.2686 147.676 77.245 148.228 80.9064C148.7 84.5285 148.857 88.1899 148.444 91.8316C148.337 93.4544 148.107 95.0666 147.755 96.6545C147.479 97.8356 147.204 98.9379 146.515 99.9616C144.678 98.7788 142.539 98.15 140.354 98.1505C140.216 94.8041 138.68 91.4576 135.905 89.4891C135.609 89.2135 135.039 89.1938 134.92 89.6466C134.783 90.1781 135.216 90.3356 135.55 90.6308C137.217 91.9724 138.393 93.8271 138.897 95.9064C140.078 100.434 138.306 105.749 134.33 108.308C132.682 109.381 130.715 109.853 128.759 109.647C130.941 107.252 132.282 104.211 132.578 100.985C132.775 99.6072 132.755 98.2096 132.479 96.8513C132.389 96.0786 132.142 95.3325 131.752 94.6588C131.363 93.9852 130.84 93.3982 130.216 92.934C130.019 91.6348 129.724 90.3553 129.153 89.1545C129.054 88.8592 128.838 88.6033 129.035 88.2883C129.487 87.4812 130.117 86.6348 130.413 85.7293C130.491 85.3553 130.354 84.8631 129.92 84.8041C129.33 84.7056 128.739 85.2568 128.188 85.1978C127.735 85.0009 127.401 84.4694 127.145 84.0757C126.318 82.7765 126.161 81.4576 125.609 79.9812C126.633 79.371 127.873 78.8001 128.661 77.8749C129.251 77.2056 129.645 76.4576 130.039 75.6702C132.401 75.1781 134.448 73.8986 135.964 72.0088C136.22 71.6741 136.102 71.1033 135.629 71.1033C135.255 71.0442 135.039 71.3986 134.802 71.6151C134.031 72.5066 133.095 73.2417 132.046 73.7804C129.778 74.8021 127.265 75.1572 124.802 74.8041C122.46 74.4891 120.59 73.4458 118.523 72.4222C118.149 72.2253 117.814 72.0285 117.46 71.7923C118.779 72.0482 120.117 72.186 121.456 72.3041C123.641 72.5009 125.885 72.2844 128.07 72.1072C128.641 72.0285 128.602 71.6742 128.661 71.2017C128.208 71.0836 127.814 70.9852 127.361 71.0442C125.117 71.2017 122.893 71.3395 120.668 71.1033C116.121 70.6505 111.456 69.2135 107.046 67.993C103.63 66.8826 100.046 66.3764 96.4559 66.497C93.7 66.6545 90.9441 67.1466 88.2472 67.7175C88.2953 67.3711 88.4089 67.0371 88.5819 66.7332C90.5307 63.3868 92.9716 60.4143 96.1409 58.1308C99.6842 55.6308 103.798 54.2923 108.07 53.8395ZM55.511 87.3238C55.1567 88.4064 54.7039 89.4104 54.5267 90.5521C54.3299 91.8119 53.8378 92.9537 53.7787 94.2529C52.4795 94.7253 51.3181 95.434 50.3141 96.3789C47.7416 98.756 45.8694 101.792 44.9007 105.158C44.8023 104.095 44.763 103.032 44.8417 101.969C45.187 98.812 46.3513 95.7996 48.2192 93.2307C50.0872 90.6617 52.594 88.6255 55.4913 87.3238H55.511ZM142.913 123.032C144.586 124.174 145.098 126.458 144.861 128.347C144.536 130.846 143.303 133.137 141.397 134.784C141.65 132.71 141.185 130.612 140.078 128.84C138.886 126.732 137.011 125.093 134.763 124.194L135.275 123.328C136.574 123.78 137.834 123.623 139.172 123.682C140.491 123.721 141.633 123.288 142.913 123.032Z" fill="#592454"/>
</g>
</g>
<defs>
<clipPath id="clip0_391_607">
<rect width="150" height="150" fill="white" transform="translate(25 25)"/>
</clipPath>
</defs>
</svg>
