<svg width="151" height="150" viewBox="0 0 151 150" fill="none" xmlns="http://www.w3.org/2000/svg">
<path d="M19.25 37.5C19.25 28.6612 19.25 24.2418 21.9959 21.4959C24.7418 18.75 29.1612 18.75 38 18.75C46.8388 18.75 51.2583 18.75 54.0041 21.4959C56.75 24.2418 56.75 28.6612 56.75 37.5C56.75 46.3388 56.75 50.7583 54.0041 53.5041C51.2583 56.25 46.8388 56.25 38 56.25C29.1612 56.25 24.7418 56.25 21.9959 53.5041C19.25 50.7583 19.25 46.3388 19.25 37.5Z" stroke="white" stroke-width="10"/>
<path d="M19.25 112.5C19.25 103.661 19.25 99.2419 21.9959 96.4956C24.7418 93.75 29.1612 93.75 38 93.75C46.8388 93.75 51.2583 93.75 54.0041 96.4956C56.75 99.2419 56.75 103.661 56.75 112.5C56.75 121.339 56.75 125.758 54.0041 128.504C51.2583 131.25 46.8388 131.25 38 131.25C29.1612 131.25 24.7418 131.25 21.9959 128.504C19.25 125.758 19.25 121.339 19.25 112.5Z" stroke="white" stroke-width="10"/>
<path d="M19.25 75H56.75" stroke="white" stroke-width="10" stroke-linecap="round" stroke-linejoin="round"/>
<path d="M75.5 18.75V50" stroke="white" stroke-width="10" stroke-linecap="round" stroke-linejoin="round"/>
<path d="M94.25 37.5C94.25 28.6612 94.25 24.2418 96.9956 21.4959C99.7419 18.75 104.161 18.75 113 18.75C121.839 18.75 126.258 18.75 129.004 21.4959C131.75 24.2418 131.75 28.6612 131.75 37.5C131.75 46.3388 131.75 50.7583 129.004 53.5041C126.258 56.25 121.839 56.25 113 56.25C104.161 56.25 99.7419 56.25 96.9956 53.5041C94.25 50.7583 94.25 46.3388 94.25 37.5Z" stroke="white" stroke-width="10"/>
<path d="M131.75 75H94.25C85.4113 75 80.9919 75 78.2456 77.7456C75.5 80.4919 75.5 84.9113 75.5 93.75M75.5 111.057V128.366M94.25 93.75V103.125C94.25 112.165 99.1481 112.5 106.75 112.5C110.202 112.5 113 115.298 113 118.75M100.5 131.25H94.25M113 93.75C121.839 93.75 126.258 93.75 129.004 96.5C131.75 99.2494 131.75 103.676 131.75 112.527C131.75 121.379 131.75 125.804 129.004 128.554C127 130.561 124.104 131.104 119.25 131.25" stroke="white" stroke-width="10" stroke-linecap="round"/>
</svg>
